<svg width="21" height="20" viewBox="0 0 21 20" fill="none" xmlns="http://www.w3.org/2000/svg">
<g clip-path="url(#clip0_1_1345)">
<path d="M5.8882 17.5H2.26008V5.81625H5.8882V17.5ZM4.07195 4.2225C2.91195 4.2225 1.9707 3.26125 1.9707 2.10125C1.9707 1.54396 2.19208 1.0095 2.58615 0.615442C2.98021 0.221381 3.51467 0 4.07195 0C4.62924 0 5.1637 0.221381 5.55776 0.615442C5.95182 1.0095 6.1732 1.54396 6.1732 2.10125C6.1732 3.26125 5.23195 4.2225 4.07195 4.2225ZM19.467 17.5H15.847V11.8125C15.847 10.4569 15.8195 8.71875 13.9607 8.71875C12.0745 8.71875 11.7851 10.1912 11.7851 11.715V17.5H8.1607V5.81625H11.6401V7.41H11.6907C12.1751 6.49188 13.3582 5.52312 15.1232 5.52312C18.7951 5.52312 19.4701 7.94125 19.4701 11.0819V17.5H19.467Z" fill="#999999"/>
</g>
<defs>
<clipPath id="clip0_1_1345">
<rect width="20" height="20" fill="white" transform="translate(0.720703)"/>
</clipPath>
</defs>
</svg>
