<svg width="21" height="20" viewBox="0 0 21 20" fill="none" xmlns="http://www.w3.org/2000/svg">
<g clip-path="url(#clip0_1_1343)">
<path d="M20.4233 4.11418C19.7274 4.42251 18.9799 4.63085 18.1941 4.72501C19.0049 4.23984 19.6115 3.47624 19.9008 2.57668C19.139 3.02917 18.3052 3.34768 17.4358 3.51835C16.8511 2.89407 16.0766 2.48029 15.2327 2.34124C14.3887 2.2022 13.5225 2.34567 12.7685 2.74939C12.0144 3.15311 11.4147 3.79448 11.0625 4.57393C10.7104 5.35338 10.6254 6.22731 10.8208 7.06001C9.27716 6.98251 7.76711 6.5813 6.38861 5.88243C5.0101 5.18356 3.79395 4.20265 2.81909 3.00335C2.48575 3.57835 2.29409 4.24501 2.29409 4.95501C2.29372 5.59418 2.45111 6.22355 2.75232 6.78729C3.05352 7.35103 3.48922 7.83171 4.02075 8.18668C3.40432 8.16707 2.80148 8.0005 2.26242 7.70085V7.75085C2.26236 8.6473 2.57245 9.51616 3.14007 10.21C3.7077 10.9039 4.4979 11.38 5.37659 11.5575C4.80474 11.7123 4.2052 11.7351 3.62325 11.6242C3.87117 12.3955 4.35408 13.07 5.00439 13.5533C5.6547 14.0365 6.43985 14.3043 7.24992 14.3192C5.87478 15.3987 4.17649 15.9843 2.42825 15.9817C2.11857 15.9818 1.80915 15.9637 1.50159 15.9275C3.27615 17.0685 5.34187 17.674 7.45159 17.6717C14.5933 17.6717 18.4974 11.7567 18.4974 6.62668C18.4974 6.46001 18.4933 6.29168 18.4858 6.12501C19.2452 5.57583 19.9007 4.89576 20.4216 4.11668L20.4233 4.11418Z" fill="#999999"/>
</g>
<defs>
<clipPath id="clip0_1_1343">
<rect width="20" height="20" fill="white" transform="translate(0.720703)"/>
</clipPath>
</defs>
</svg>
